D:\school\WTK\thesis\model\3dpredictsim\Results\batch_windlass\Pog_s1_tmt_aCst_d00_k500_WL20_ig24_act_TTC_GRF.mot
nRows=15
nColumns=19

name D:\school\WTK\thesis\model\3dpredictsim\Results\batch_windlass\Pog_s1_tmt_aCst_d00_k500_WL20_ig24_act_TTC_GRF.mot
datacolumns 19
datarows 15
range 0.5819024671 0.7448351578
endheader
time 	ground_force_vx	ground_force_vy	ground_force_vz	ground_force_px	ground_force_py	ground_force_pz	1_ground_force_vx	1_ground_force_vy	1_ground_force_vz	1_ground_force_px	1_ground_force_py	1_ground_force_pz	ground_torque_x	ground_torque_y	ground_torque_z	1_ground_torque_x	1_ground_torque_y	1_ground_torque_z
        0.5819024671	       71.4723409898	      334.4096776543	       -0.8465252710	        0.3599601552	        0.0000000000	        0.0312870569	      -40.2300620297	       28.7398830845	       -4.4168333214	        0.8802581513	        0.0000000000	       -0.0701647239	        0.0000000000	        0.0000000000	        0.0000000000	        0.0000000000	        0.0000000000	        0.0000000000	
        0.5935405164	       43.1688572575	      240.1556880253	        7.0362349383	        0.3711926721	        0.0000000000	        0.0258554723	     -105.6595792771	       88.8676258922	      -13.6942442437	        0.8958162701	        0.0000000000	       -0.0696655828	        0.0000000000	        0.0000000000	        0.0000000000	        0.0000000000	        0.0000000000	        0.0000000000	
        0.6051785657	       28.0032020094	      198.5696023007	       18.9562140365	        0.3723525527	        0.0000000000	        0.0256336025	     -161.8111901995	      277.9784076635	      -16.2386697057	        0.9109177720	        0.0000000000	       -0.0694529474	        0.0000000000	        0.0000000000	        0.0000000000	        0.0000000000	        0.0000000000	        0.0000000000	
        0.6168166151	       20.4064306246	      147.5188688098	       19.1096904312	        0.3724210523	        0.0000000000	        0.0257406952	     -122.8398279093	      635.6171375774	       15.5838487735	        0.9220377539	        0.0000000000	       -0.0673194947	        0.0000000000	        0.0000000000	        0.0000000000	        0.0000000000	        0.0000000000	        0.0000000000	
        0.6284546644	        0.6274969218	       82.4219736411	       16.2984482519	        0.3713642439	        0.0000000000	        0.0260495299	     -157.0889712374	      939.5282794731	       27.3826376892	        0.9329484336	        0.0000000000	       -0.0650600732	        0.0000000000	        0.0000000000	        0.0000000000	        0.0000000000	        0.0000000000	        0.0000000000	
        0.6400927138	      -11.8357983542	       15.8464858156	        3.3934214203	        0.3660385232	        0.0000000000	        0.0254588554	     -172.4385079368	     1010.0127165072	       28.5602399755	        0.9375900417	        0.0000000000	       -0.0635693852	        0.0000000000	        0.0000000000	        0.0000000000	        0.0000000000	        0.0000000000	        0.0000000000	
        0.6517307631	        0.8060271194	       -0.6978445062	        0.0288837589	        0.0000000000	        0.0000000000	        0.0000000000	     -149.4115628160	      953.2363087308	       28.5570812236	        0.9402008086	        0.0000000000	       -0.0626866070	        0.0000000000	        0.0000000000	        0.0000000000	        0.0000000000	        0.0000000000	        0.0000000000	
        0.6633688124	       -6.1898933901	        4.6341528380	       -0.5370857558	        0.0000000000	        0.0000000000	        0.0000000000	     -130.1209717031	      866.2061446541	       25.7776494773	        0.9434008436	        0.0000000000	       -0.0620361128	        0.0000000000	        0.0000000000	        0.0000000000	        0.0000000000	        0.0000000000	        0.0000000000	
        0.6750068618	       -2.8385720843	        1.8313979269	       -0.2658527751	        0.0000000000	        0.0000000000	        0.0000000000	     -114.3557950357	      805.5770309712	       22.9864047307	        0.9462733653	        0.0000000000	       -0.0616224941	        0.0000000000	        0.0000000000	        0.0000000000	        0.0000000000	        0.0000000000	        0.0000000000	
        0.6866449111	       -0.1720302923	        0.1049538795	       -0.0143918865	        0.0000000000	        0.0000000000	        0.0000000000	      -98.4562979426	      759.3580264230	       22.3001387584	        0.9487653534	        0.0000000000	       -0.0613562226	        0.0000000000	        0.0000000000	        0.0000000000	        0.0000000000	        0.0000000000	        0.0000000000	
        0.6982829605	       -0.1515390674	        0.0866180714	       -0.0120929648	        0.0000000000	        0.0000000000	        0.0000000000	      -83.8759665806	      719.8257787035	       21.9841910227	        0.9516145708	        0.0000000000	       -0.0611253441	        0.0000000000	        0.0000000000	        0.0000000000	        0.0000000000	        0.0000000000	        0.0000000000	
        0.7099210098	       -0.2217987514	        0.1232313596	       -0.0154729829	        0.0000000000	        0.0000000000	        0.0000000000	      -70.7749720347	      688.6709098056	       22.1689638714	        0.9558318706	        0.0000000000	       -0.0607627434	        0.0000000000	        0.0000000000	        0.0000000000	        0.0000000000	        0.0000000000	        0.0000000000	
        0.7215590592	       -0.1413579596	        0.0776686469	       -0.0078950767	        0.0000000000	        0.0000000000	        0.0000000000	      -60.9981162586	      665.4000512962	       23.1892206568	        0.9613137793	        0.0000000000	       -0.0601939700	        0.0000000000	        0.0000000000	        0.0000000000	        0.0000000000	        0.0000000000	        0.0000000000	
        0.7331971085	       -0.0714734896	        0.0379343732	       -0.0039539023	        0.0000000000	        0.0000000000	        0.0000000000	      -53.5359960428	      647.2644052949	       23.6860225578	        0.9674360014	        0.0000000000	       -0.0594779989	        0.0000000000	        0.0000000000	        0.0000000000	        0.0000000000	        0.0000000000	        0.0000000000	
        0.7448351578	       -0.0394059611	        0.0200292199	       -0.0022482321	        0.0000000000	        0.0000000000	        0.0000000000	      -47.6465009926	      632.5942807568	       23.8478402520	        0.9737961118	        0.0000000000	       -0.0586650949	        0.0000000000	        0.0000000000	        0.0000000000	        0.0000000000	        0.0000000000	        0.0000000000	
